<svg width="848" height="394" viewBox="0 0 848 394" fill="none" xmlns="http://www.w3.org/2000/svg">
<path d="M46.6667 3.39978C17.0667 13.3998 0.666667 38.8664 5.06667 68.4664C7.06667 82.4664 11.7333 91.9331 20.6667 100.066C29.4667 108.066 41.0667 113.266 65.3333 119.666C85.3333 125 89.0667 126.6 93.8667 132.333C98.4 137.8 98.4 144.066 93.8667 149.533C89.4667 154.866 81.8667 156.866 69.7333 155.933C57.4667 155 47.6 150.6 38.2667 141.933C28.4 132.6 26.6667 132.333 19.2 139.266C10 147.666 0 160.066 0 163C0 170.2 22.5333 187.133 39.6 192.866C84.9333 207.933 130.267 190.733 140.667 154.466C144.133 142.6 142.933 124.733 138.133 114.733C130.8 99.3998 116.133 89.9331 83.3333 79.6664C53.4667 70.1998 49.3333 67.5331 49.3333 57.5331C49.3333 37.7998 83.4667 36.5998 102 55.6664C106.8 60.4664 108.8 61.6664 112.533 61.6664C116.667 61.6664 118.267 60.4664 127.867 49.3998C135.6 40.4664 138.667 36.0664 138.667 33.5331C138.667 25.1331 109.067 5.39978 90.9333 1.79978C78.4 -0.733555 56.5333 0.0664447 46.6667 3.39978Z" fill="url(#paint0_linear_6010_7)"/>
<path d="M228.667 2.46601C216.8 4.86601 197.467 14.3327 187.733 22.5993C153.333 51.3993 143.333 103.266 163.867 144.999C180.267 178.066 211.867 197.666 248.533 197.666C265.067 197.666 276.8 195.266 289.6 189.266C306.667 181.266 328 162.599 328 155.666C328 153.399 324.267 149.266 313.867 140.466C306.134 133.799 298.8 128.333 297.734 128.333C296.534 128.333 292.133 131.933 287.867 136.333C260.933 164.466 218.133 157.399 201.6 121.933C198.4 115.133 198 112.733 198 99.666C198 81.266 200.8 73.266 211.6 61.666C232.4 39.1327 265.067 39.1327 288.533 61.9327C296.133 69.266 301.334 71.5327 303.334 68.466C303.734 67.7993 309.734 62.5993 316.667 56.9993C333.067 43.7993 333.2 42.9993 319.067 29.5327C293.467 5.26601 261.6 -4.33399 228.667 2.46601Z" fill="url(#paint1_linear_6010_7)"/>
<path d="M421.066 2.99952C383.466 9.39952 350.933 39.7995 341.866 76.9995C339.066 87.9329 338.8 111.266 341.2 120.333C346.933 141.666 356.933 158.866 371.733 172.466C400.4 199 443.466 205.133 479.333 187.666C506.533 174.466 524.8 151.933 532.133 122.866C536 107.533 535.2 85.3995 530.266 70.3329C515.2 24.5995 467.466 -4.73382 421.066 2.99952ZM441.333 30.9995V46.9995H436.666H432V31.9329C432 23.5329 432.4 16.3329 432.933 15.9329C433.333 15.3995 435.466 14.9995 437.6 14.9995H441.333V30.9995ZM407.2 38.9995L414.8 51.6662L411.866 53.9329C410.4 55.2662 408.666 56.3329 408.133 56.3329C407.466 56.3329 400.933 46.3329 393.333 33.3995L390.533 28.4662L394.266 26.4662C396.266 25.3995 398.4 24.9995 398.8 25.3995C399.333 25.9329 403.066 32.0662 407.2 38.9995ZM480.133 26.9995C481.466 27.7995 482.666 29.1329 482.666 29.9329C482.666 31.5329 468.266 56.0662 466.666 56.9995C466.133 57.3995 464.266 56.5995 462.666 55.2662C459.733 52.8662 459.733 52.7329 462 48.1995C467.066 38.1995 475.066 25.6662 476.266 25.6662C476.933 25.6662 478.666 26.3329 480.133 26.9995ZM379.466 62.5995C386.533 66.8662 392.666 70.9995 392.933 71.7995C393.2 72.5995 392.4 74.5995 391.066 76.0662L388.666 78.9995L376.666 71.5329C361.2 61.9329 360.666 61.3995 362.533 57.7995C363.466 56.3329 364.666 54.9995 365.2 54.9995C365.866 54.9995 372.266 58.4662 379.466 62.5995ZM512 61.1329C512 62.1995 510.666 63.7995 509.066 64.7329C498.533 71.1329 484.933 78.9995 484.666 78.7329C484.533 78.4662 483.733 76.9995 482.933 75.5329C481.066 72.0662 481.466 71.6662 496.533 62.1995C506.4 55.9329 507.466 55.5329 509.733 57.3995C510.933 58.4662 512 60.1995 512 61.1329ZM463.733 77.9329C467.066 81.2662 464.933 84.8662 452.4 98.4662C442.933 108.466 438.4 112.333 436.133 112.333C431.466 112.333 414.4 94.1995 414.933 89.6662C415.6 84.0662 421.066 84.5995 428.266 90.9995C431.6 93.9329 435.2 96.3329 436.133 96.3329C437.066 96.3329 442.133 91.7995 447.333 86.3329C456.8 76.4662 460.4 74.5995 463.733 77.9329ZM385.066 99.9329L385.466 104.333H368.8H352V100.333C352 96.4662 352.133 96.4662 360.4 95.9329C364.933 95.6662 372.266 95.5329 376.666 95.5329L384.666 95.6662L385.066 99.9329ZM522.666 99.5329V104.066L511.733 105C505.6 105.533 498 105.666 494.666 105.4C488.933 105 488.666 104.733 488.266 100.733L487.866 96.4662L498.266 95.9329C504 95.7995 511.866 95.3995 515.733 95.2662L522.666 94.9995V99.5329ZM390.933 126.333C391.733 128.2 392.133 129.933 391.733 130.333C390 132.2 368.666 144.333 367.333 144.333C365.466 144.333 360.533 139.266 361.466 138.333C363.333 136.466 386.266 123.133 387.733 123.133C388.666 123 390.133 124.466 390.933 126.333ZM498.133 130.333C505.066 134.466 510.666 138.333 510.666 138.866C510.666 139.533 509.6 141.266 508.4 142.866L506 145.666L494 137.666C487.466 133.266 481.733 129 481.6 128.333C481.066 127 483.6 123 484.933 123C485.333 123 491.2 126.333 498.133 130.333ZM474.533 156.2C478.266 162.333 481.333 168.2 481.333 169.133C481.333 170.733 477.466 173.666 475.466 173.666C475.066 173.666 471.466 167.8 467.2 160.733L459.6 147.8L462.666 145.4C464.4 144.066 466.266 143.4 466.8 143.933C467.333 144.466 470.933 150.066 474.533 156.2ZM410.8 145.666C412.133 146.466 413.333 147.8 413.333 148.6C413.333 149.4 410.266 155.4 406.533 161.8C399.733 173.8 396.933 175.933 393.466 171.8C392.266 170.333 392.666 168.6 395.733 163.4C397.866 159.933 401.2 154.2 403.2 150.6C407.2 143.666 407.066 143.8 410.8 145.666ZM441.333 167.533C441.333 183.533 441.066 184.333 434.533 184.333C432.4 184.333 432 183.4 432 177.266C432 173.533 432.4 166.333 432.933 161.266C433.733 152.466 433.733 152.333 437.466 152.333H441.333V167.533Z" fill="url(#paint2_linear_6010_7)"/>
<path d="M557.733 4.33326C556.133 4.99993 554.267 6.73326 553.467 8.19993C552.4 9.93326 552 39.2666 552 99.3999C552 187 552 188.067 554.8 191.533C557.467 195 557.733 195 574 195C598 195 596.533 196.867 596.933 162.2C597.067 147 597.467 133.8 597.867 132.867C598.267 131.8 600.533 131 603.067 131C609.067 131 611.067 133.267 630.667 163C653.733 197.8 650.133 195 671.733 195C693.467 195 697.333 193.533 697.333 185.4C697.333 182.867 691.467 173 678.667 154.067C668.4 138.867 660 125.667 660 124.733C660 123.8 663.2 121 667.067 118.467C693.733 101.4 702.8 67.9333 688.667 38.0666C679.733 18.9999 662.267 6.8666 639.867 4.33326C626 2.73326 561.733 2.73326 557.733 4.33326ZM640.667 48.1999C656.133 56.9999 654.667 80.9999 638.133 88.8666C631.6 91.9332 598 92.0666 596.8 88.8666C595.333 84.9999 595.867 47.6666 597.467 46.0666C599.867 43.6666 635.733 45.3999 640.667 48.1999Z" fill="url(#paint3_linear_6010_7)"/>
<path d="M720.667 4.59999C719.2 5.39999 717.6 6.73332 717.067 7.53332C716.533 8.33332 716 49.6667 716 99.2667C716 187.933 716 189.667 718.667 192.333C721.2 194.867 723.067 195 779.733 195C830.4 195 838.4 194.733 841.067 192.867C843.867 191 844 189.933 844 174.467C844 160.333 843.733 157.8 841.6 155.933C839.467 153.933 834.533 153.667 800.267 153.667C763.2 153.667 761.333 153.533 760 151.133C758.4 148.067 758.133 122.067 759.733 121.133C760.4 120.733 775.6 120.067 793.467 119.533C819.733 118.867 826.4 118.2 828.4 116.6C831.733 113.667 831.867 83 828.4 80.2C826.8 78.7333 819.2 78.3333 794.533 78.2C777.067 78.0667 761.733 77.6667 760.667 77.1333C759.067 76.6 758.667 73.8 758.667 63.1333C758.667 55.8 759.067 49 759.467 47.8C760.133 45.9333 764.933 45.6667 798.667 45.6667H837.2L839.867 42.2C842.267 39.1333 842.667 36.7333 842.667 24.0667C842.667 10.4667 842.533 9.39999 839.333 6.33332L836.133 2.99999H779.733C740.267 3.13332 722.533 3.53332 720.667 4.59999Z" fill="url(#paint4_linear_6010_7)"/>
<path d="M5.2 221.266C3.6 223 3.46667 237.533 3.73333 306.866C4.13333 361.266 4.66667 390.866 5.6 391.933C7.73333 394.6 40.4 394.333 42.6667 391.8C43.7333 390.466 44.1333 382.866 44.1333 366.733C44 341.533 44.8 335.4 48.4 333.133C50.2667 331.933 51.3333 332.466 54 335.933C58.5333 341.533 83.3333 370.333 95.0667 383.266L104.267 393.666H124.133C143.867 393.666 144 393.666 146.133 390.333C147.867 387.666 148 386.2 146.933 383.8C146.133 382.066 135.733 369 123.733 354.866C85.0667 308.733 82.6667 305.8 82.6667 304.2C82.6667 302.466 86 298.466 115.2 265C147.467 228.2 148.533 226.333 142.933 221.266C140.933 219.4 137.333 219 121.867 219C108.933 219 102.533 219.533 101.067 220.6C100 221.533 87.2 236.333 72.8 253.4C58.2667 270.466 46 284.066 45.2 283.666C44.5333 283.133 44 269.933 44 252.466C44 230.733 43.6 221.8 42.4 220.6C41.3333 219.533 35.2 219 23.8667 219C9.73333 219 6.66667 219.4 5.2 221.266Z" fill="url(#paint5_linear_6010_7)"/>
<path d="M167.6 221.399C165.6 223.666 165.333 231.533 165.333 306.199C165.333 360.333 165.866 389.399 166.666 391.133C168 393.533 170.133 393.666 223.066 393.666C264.133 393.666 278.533 393.266 279.733 392.066C280.8 390.999 281.333 385.266 281.333 374.866C281.333 362.066 280.933 358.999 279.066 357.533C277.466 356.066 268.8 355.533 241.466 354.999L206 354.333V340.333V326.333L236.8 325.666C260.133 325.133 268.133 324.599 269.733 323.133C271.6 321.666 272 318.599 272 305.533C272 291.266 271.733 289.666 269.466 288.333C267.866 287.533 254.933 286.999 236.933 286.999C210.8 286.999 206.8 286.733 206.133 284.866C205.066 282.199 205.066 262.466 206.133 259.799C206.8 257.933 211.2 257.666 241.466 257.666C284.133 257.666 281.333 258.999 281.333 237.799C281.333 224.199 281.066 222.999 278.4 221.133C275.866 219.266 268.266 218.999 222.533 218.999C173.066 218.999 169.6 219.133 167.6 221.399Z" fill="url(#paint6_linear_6010_7)"/>
<path d="M303.2 220.866C300.666 222.733 300.666 224.866 301.2 306.599C301.466 360.333 302.133 390.866 302.933 391.933C304 393.266 316.8 393.666 358.8 393.666H413.2L415.2 390.733C416.8 388.466 417.333 384.333 417.333 374.066C417.333 353.799 420 354.999 376.8 354.999C336.4 354.999 340.4 356.599 340.133 340.599C339.733 324.333 336.8 325.666 372 325.666H402.533L405.333 322.066C408 318.733 408.133 316.999 407.733 304.599C407.333 292.733 406.933 290.466 404.8 288.866C402.666 287.399 395.866 286.999 371.866 286.999C345.466 286.999 341.466 286.733 340.8 284.866C339.733 282.199 339.733 262.466 340.8 259.799C341.466 257.933 345.866 257.666 376 257.666C419.2 257.666 416.533 258.999 416.133 237.533C416 225.133 415.466 222.066 413.733 220.599C410.266 218.066 306.8 218.333 303.2 220.866Z" fill="url(#paint7_linear_6010_7)"/>
<path d="M436.934 221.4C434.934 223.667 434.667 231.533 434.667 307.133C434.667 370.2 435.067 390.867 436.267 392.067C438.534 394.333 470.8 394.333 473.067 392.067C474.134 391 474.667 383.8 474.667 368.6C474.667 356.2 475.2 345.667 476 344.2C477.334 341.933 479.067 341.667 495.067 341.667C514.667 341.533 520.934 340.6 531.867 335.4C541.734 330.733 554.534 317.933 559.2 307.933C566.934 291.533 566.934 269.133 559.2 252.867C551.6 236.867 534.134 223.667 516.134 220.333C512.267 219.533 493.2 219 474 219C441.867 219 438.934 219.133 436.934 221.4ZM512.934 259.933C524.4 265.267 528.4 282.2 520.934 293.4C515.467 301.667 511.2 303.4 493.467 304.067C479.867 304.6 478 304.467 476.4 302.2C475.2 300.467 474.667 294.333 474.667 279.667C474.667 268.467 475.067 259 475.6 258.6C476 258.067 483.6 257.667 492.4 257.667C504.4 257.667 509.334 258.2 512.934 259.933Z" fill="url(#paint8_linear_6010_7)"/>
<path d="M583.733 220.466C581.466 221.666 581.333 227.133 581.333 305.133C581.333 360.066 581.866 389.399 582.666 391.133C584 393.533 586.133 393.666 638.666 393.666C686.4 393.666 693.466 393.399 695.2 391.533C696.933 389.933 697.333 386.333 697.333 374.866C697.333 353.533 699.866 354.866 658.933 354.999C640.8 355.133 624.933 355.133 623.6 354.999C621.466 354.999 621.333 353.666 621.6 340.599L622 326.333L652.4 325.666C689.733 324.866 688 325.799 688 305.799C688 286.466 690.4 287.799 653.066 286.999L622 286.333V272.333V258.333L656.666 257.933C700 257.533 697.733 258.733 697.066 237.266C696.666 224.733 696.266 222.466 694.133 220.866C692 219.266 682.266 218.999 638.8 218.999C605.466 218.999 585.2 219.533 583.733 220.466Z" fill="url(#paint9_linear_6010_7)"/>
<path d="M718.133 220.999C716.267 222.999 716 231.133 716 306.866C716 370.066 716.4 390.866 717.6 392.066C719.6 394.066 750.267 394.333 753.333 392.333C754.933 391.399 755.467 386.199 756 364.733L756.667 338.333L762.267 337.933L767.867 337.533L782.8 359.933C790.933 372.199 799.733 384.866 802.267 387.933L806.8 393.666H826C844.267 393.666 845.333 393.533 846.8 390.866C847.6 389.266 848 386.733 847.733 385.133C847.333 383.666 839.867 371.799 830.933 358.866C822 345.799 814.667 334.466 814.667 333.399C814.667 332.466 818.533 328.866 823.2 325.533C832.4 318.733 838.267 311.133 842.8 300.199C846.8 290.466 847.2 267.133 843.6 256.733C838.4 241.933 825.867 229.399 809.333 222.733C802.4 219.933 799.733 219.666 761.2 219.266C724.8 218.866 720.133 218.999 718.133 220.999ZM795.733 259.933C805.6 264.999 809.467 279.799 803.6 290.333C798.8 298.999 791.867 301.666 774.533 301.666C766.667 301.666 759.333 301.266 758.133 300.866C756.267 300.199 756 296.999 756 278.999C756 263.399 756.4 257.666 757.733 257.133C758.533 256.733 766.4 256.599 775.067 256.999C787.067 257.266 791.867 258.066 795.733 259.933Z" fill="url(#paint10_linear_6010_7)"/>
<defs>
<linearGradient id="paint0_linear_6010_7" x1="72.8582" y1="-5.38191" x2="166.533" y2="148.179" gradientUnits="userSpaceOnUse">
<stop stop-color="#2A7971"/>
<stop offset="0.5" stop-color="#182535"/>
<stop offset="1" stop-color="#182535"/>
</linearGradient>
<linearGradient id="paint1_linear_6010_7" x1="243.189" y1="-5.33512" x2="326.418" y2="163.647" gradientUnits="userSpaceOnUse">
<stop stop-color="#2A7971"/>
<stop offset="0.5" stop-color="#182535"/>
<stop offset="1" stop-color="#182535"/>
</linearGradient>
<linearGradient id="paint2_linear_6010_7" x1="439.163" y1="-3.8609" x2="516.091" y2="170.509" gradientUnits="userSpaceOnUse">
<stop stop-color="#2A7971"/>
<stop offset="0.5" stop-color="#182535"/>
<stop offset="1" stop-color="#182535"/>
</linearGradient>
<linearGradient id="paint3_linear_6010_7" x1="626.225" y1="-2.38206" x2="714.883" y2="150.384" gradientUnits="userSpaceOnUse">
<stop stop-color="#2A7971"/>
<stop offset="0.5" stop-color="#182535"/>
<stop offset="1" stop-color="#182535"/>
</linearGradient>
<linearGradient id="paint4_linear_6010_7" x1="781.373" y1="-2.5176" x2="875.254" y2="139.898" gradientUnits="userSpaceOnUse">
<stop stop-color="#2A7971"/>
<stop offset="0.5" stop-color="#182535"/>
<stop offset="1" stop-color="#182535"/>
</linearGradient>
<linearGradient id="paint5_linear_6010_7" x1="77.163" y1="213.976" x2="154.424" y2="358.773" gradientUnits="userSpaceOnUse">
<stop stop-color="#2A7971"/>
<stop offset="0.5" stop-color="#182535"/>
<stop offset="1" stop-color="#182535"/>
</linearGradient>
<linearGradient id="paint6_linear_6010_7" x1="224.596" y1="213.98" x2="310.12" y2="343.263" gradientUnits="userSpaceOnUse">
<stop stop-color="#2A7971"/>
<stop offset="0.5" stop-color="#182535"/>
<stop offset="1" stop-color="#182535"/>
</linearGradient>
<linearGradient id="paint7_linear_6010_7" x1="360.39" y1="213.803" x2="445.912" y2="343.414" gradientUnits="userSpaceOnUse">
<stop stop-color="#2A7971"/>
<stop offset="0.5" stop-color="#182535"/>
<stop offset="1" stop-color="#182535"/>
</linearGradient>
<linearGradient id="paint8_linear_6010_7" x1="501.231" y1="213.978" x2="582.573" y2="352.009" gradientUnits="userSpaceOnUse">
<stop stop-color="#2A7971"/>
<stop offset="0.5" stop-color="#182535"/>
<stop offset="1" stop-color="#182535"/>
</linearGradient>
<linearGradient id="paint9_linear_6010_7" x1="640.593" y1="213.98" x2="726.118" y2="343.259" gradientUnits="userSpaceOnUse">
<stop stop-color="#2A7971"/>
<stop offset="0.5" stop-color="#182535"/>
<stop offset="1" stop-color="#182535"/>
</linearGradient>
<linearGradient id="paint10_linear_6010_7" x1="783.321" y1="214.067" x2="864.114" y2="352.841" gradientUnits="userSpaceOnUse">
<stop stop-color="#2A7971"/>
<stop offset="0.5" stop-color="#182535"/>
<stop offset="1" stop-color="#182535"/>
</linearGradient>
</defs>
</svg>
